<?xml version="1.0" standalone="no"?><!DOCTYPE svg PUBLIC "-//W3C//DTD SVG 1.1//EN" "http://www.w3.org/Graphics/SVG/1.1/DTD/svg11.dtd"><svg t="1570772844371" class="icon" viewBox="0 0 1024 1024" version="1.1" xmlns="http://www.w3.org/2000/svg" p-id="2055" xmlns:xlink="http://www.w3.org/1999/xlink" width="200" height="200"><defs><style type="text/css"></style></defs><path d="M514.816 103.04v-14.336H449.28v14.336h-46.144v72h157.76V103.04z" p-id="2056"></path><path d="M307.456 366.656h-41.6a43.072 43.072 0 0 1-43.008-42.944v-41.664c0-23.68 19.328-42.944 43.008-42.944h41.6c23.744 0 43.008 19.264 43.008 42.944v41.664c0 23.68-19.328 42.944-43.008 42.944z m0-42.944v21.44-21.44z m-41.664-41.664v41.664h41.6v-41.664h-41.6zM307.456 529.92h-41.6a43.072 43.072 0 0 1-43.008-42.944v-41.664c0-23.744 19.328-43.008 43.008-43.008h41.6c23.744 0 43.008 19.264 43.008 43.008v41.664c0 23.68-19.328 42.944-43.008 42.944z m0-43.008v21.504-21.504z m-41.664-41.6v41.664h41.6v-41.664h-41.6zM307.456 693.12h-41.6a43.072 43.072 0 0 1-43.008-43.008v-41.6c0-23.744 19.328-42.944 43.008-42.944h41.6c23.744 0 43.008 19.2 43.008 42.944v41.6c0 23.68-19.328 43.008-43.008 43.008z m0-43.008v21.504-21.504z m-41.664-41.6v41.6h41.6v-41.6h-41.6zM307.456 849.664h-41.6c-23.68 0-43.008-19.2-43.008-43.008v-41.6c0-23.68 19.328-43.008 43.008-43.008h41.6c23.744 0 43.008 19.328 43.008 43.008v41.6a43.008 43.008 0 0 1-43.008 43.008z m0-43.008v21.504-21.504z m-41.664-41.6v41.6h41.6v-41.6h-41.6zM691.968 319.68h-283.52a21.44 21.44 0 1 1 0-43.008h283.456c11.904 0 21.376 9.6 21.376 21.504s-9.472 21.504-21.312 21.504zM691.968 486.528h-283.52a21.44 21.44 0 1 1 0-42.944h283.456c11.904 0 21.376 9.6 21.376 21.44a21.376 21.376 0 0 1-21.312 21.504zM580.032 650.816H408.448a21.44 21.44 0 1 1 0-43.008h171.584a21.44 21.44 0 1 1 0 43.008zM560.896 807.36H408.448a21.504 21.504 0 0 1 0-43.008h152.384a21.504 21.504 0 1 1 0.064 43.008zM765.568 543.36a149.952 149.952 0 0 0-149.888 149.76 150.08 150.08 0 0 0 149.888 149.76 150.016 150.016 0 0 0 149.76-149.76 149.952 149.952 0 0 0-149.76-149.76z m91.648 149.76c0 14.848-3.904 28.608-10.112 41.088L724.48 611.648c12.352-6.336 26.24-10.176 41.152-10.176a91.712 91.712 0 0 1 91.584 91.648z m-183.424 0c0-14.528 3.776-28.032 9.728-40.192l122.112 122.112c-12.096 6.08-25.6 9.728-40.128 9.728a91.712 91.712 0 0 1-91.712-91.648z" p-id="2057"></path><path d="M774.912 892.352l-585.728 1.024-2.496-727.04L384 166.016v-42.688H186.688a41.28 41.28 0 0 0-40.512 41.984v728c0 23.104 18.176 41.92 40.512 41.92h590.72c22.4 0 40.512-18.816 40.512-41.92v-16.256h-43.008v15.296zM777.408 123.328H580.032v42.368l194.88-0.32V517.12h43.008V165.312a41.28 41.28 0 0 0-40.512-41.984z" p-id="2058"></path></svg>