<?xml version="1.0" standalone="no"?><!DOCTYPE svg PUBLIC "-//W3C//DTD SVG 1.1//EN" "http://www.w3.org/Graphics/SVG/1.1/DTD/svg11.dtd"><svg t="1570774060775" class="icon" viewBox="0 0 1024 1024" version="1.1" xmlns="http://www.w3.org/2000/svg" p-id="5222" xmlns:xlink="http://www.w3.org/1999/xlink" width="200" height="200"><defs><style type="text/css"></style></defs><path d="M781.603 739.52l-224.017-224.019 224.012-224.012c11.217-11.216 11.217-29.406 0-40.622-11.217-11.217-29.405-11.217-40.622 0l-224.012 224.015-224.013-224.013c-11.216-11.216-29.407-11.216-40.62 0-11.217 11.217-11.217 29.405 0 40.622l224.012 224.012-224.015 224.019c-11.215 11.217-11.215 29.405 0 40.622 11.216 11.214 29.407 11.214 40.622 0l224.013-224.018 224.017 224.018c11.217 11.217 29.404 11.217 40.622 0 11.215-11.217 11.215-29.405 0-40.622v0z" p-id="5223"></path></svg>