<?xml version="1.0" standalone="no"?><!DOCTYPE svg PUBLIC "-//W3C//DTD SVG 1.1//EN" "http://www.w3.org/Graphics/SVG/1.1/DTD/svg11.dtd"><svg t="1571307795219" class="icon" viewBox="0 0 1024 1024" version="1.1" xmlns="http://www.w3.org/2000/svg" p-id="1111" xmlns:xlink="http://www.w3.org/1999/xlink" width="200" height="200"><defs><style type="text/css"></style></defs><path d="M815.3696 417.2188H322.36025V254.905014a184.309757 184.309757 0 0 1 189.61975-178.999764 184.309757 184.309757 0 0 1 189.61875 178.999764 37.92395 37.92395 0 0 0 75.8479 0A260.157657 260.157657 0 0 0 511.979 0.05635a260.157657 260.157657 0 0 0-265.46665 254.848664v162.313786h-37.92395a75.8479 75.8479 0 0 0-75.8469 75.8479v455.0854A75.8479 75.8479 0 0 0 208.5884 1024H815.3696a75.8479 75.8479 0 0 0 75.8479-75.8479V493.0667a75.8479 75.8479 0 0 0-75.8479-75.8479z" p-id="1112"></path></svg>